<svg id="visual" viewBox="0 0 2000 300" width="2000" height="300" xmlns="http://www.w3.org/2000/svg" xmlns:xlink="http://www.w3.org/1999/xlink" version="1.1">
<path d="M0 158L47.7 153.5C95.3 149 190.7 140 285.8 147.3C381 154.7 476 178.3 571.2 190C666.3 201.7 761.7 201.3 857 183.8C952.3 166.3 1047.7 131.7 1143 125.3C1238.3 119 1333.7 141 1428.8 149.2C1524 157.3 1619 151.7 1714.2 144.5C1809.3 137.3 1904.7 128.7 1952.3 124.3L2000 120L2000 301L1952.3 301C1904.7 301 1809.3 301 1714.2 301C1619 301 1524 301 1428.8 301C1333.7 301 1238.3 301 1143 301C1047.7 301 952.3 301 857 301C761.7 301 666.3 301 571.2 301C476 301 381 301 285.8 301C190.7 301 95.3 301 47.7 301L0 301Z" fill="#0066FF" stroke-linecap="round" stroke-linejoin="miter">
</path>
</svg>