<svg id="visual" viewBox="0 0 2000 300" width="2000" height="300" xmlns="http://www.w3.org/2000/svg" xmlns:xlink="http://www.w3.org/1999/xlink" version="1.1">
<path d="M0 77L47.7 98.3C95.3 119.7 190.7 162.3 285.8 171.2C381 180 476 155 571.2 133.8C666.3 112.7 761.7 95.3 857 98C952.3 100.7 1047.7 123.3 1143 145C1238.3 166.7 1333.7 187.3 1428.8 199C1524 210.7 1619 213.3 1714.2 216C1809.3 218.7 1904.7 221.3 1952.3 222.7L2000 224L2000 0L1952.3 0C1904.7 0 1809.3 0 1714.2 0C1619 0 1524 0 1428.8 0C1333.7 0 1238.3 0 1143 0C1047.7 0 952.3 0 857 0C761.7 0 666.3 0 571.2 0C476 0 381 0 285.8 0C190.7 0 95.3 0 47.7 0L0 0Z" fill="#0066FF" stroke-linecap="round" stroke-linejoin="miter">
</path></svg>